<svg xmlns="http://www.w3.org/2000/svg" xmlns:svg="http://www.w3.org/2000/svg" id="svg2" width="100" height="100" version="1.2"><metadata id="metadata17"/><g id="g4"><title id="title6">Layer 1</title></g><g id="g8"><title id="title10">Layer 2</title><path id="svg_10" fill="#ede0c8" d="m 6,0 88,0 c 3.324,0 6,2.676 6,6 l 0,88 c 0,3.324 -2.676,6 -6,6 L 6,100 C 2.676,100 0,97.324 0,94 L 0,6 C 0,2.676 2.676,0 6,0 z"/></g><g id="text2989" fill="#776e65" fill-opacity="1" stroke="none" font-family="Clear Sans" font-size="55" font-stretch="normal" font-style="normal" font-variant="normal" font-weight="normal" letter-spacing="0" word-spacing="0" style="line-height:125%;-inkscape-font-specification:Clear Sans"><path id="path3762" fill="#776e65" d="m 59.828182,57.806328 0,8.083496 -5.86792,0 0,-8.083496 -18.748474,0 0,-5.397949 19.248657,-24.035645 5.367737,0 0,24.146423 5.030365,0 0,5.287171 z m -5.86792,-21.407166 -12.773132,16.119995 12.773132,0 z" font-weight="bold"/></g></svg>